<svg xmlns="http://www.w3.org/2000/svg" width="33.728" height="56.623" viewBox="0 0 33.728 56.623">
    <g id="Group_2110" data-name="Group 2110" transform="translate(.001)">
        <path id="Path_2551" d="M62.365 85.838a3.412 3.412 0 0 0 3.4 3.9H85.1a3.413 3.413 0 0 0 3.4-3.9c-.017-.123-1.685-12.621 1.531-22.267 3.628-10.884 1.837-24.936 1.759-25.529a2.5 2.5 0 0 0-.509-1.444 12.408 12.408 0 0 0-3.541-2.03c-2.194-.819-7.911-1.45-12.552-1.45-5.4 0-10.428.721-12.326 1.441a7.55 7.55 0 0 0-3.008 1.647 3.569 3.569 0 0 0-.771 1.835c-.078.593-1.868 14.646 1.759 25.53 3.218 9.678 1.54 22.142 1.523 22.267zM61.82 38.4a1.229 1.229 0 0 1 .834-.949s4.551-1.69 12.526-1.569c.508.008.993.019 1.466.034 8.895.262 11.55 1.568 11.55 1.568a1.165 1.165 0 0 1 .843.917S90.865 52.292 87.4 62.7s-1.647 23.523-1.647 23.523a.645.645 0 0 1-.656.754H65.763a.645.645 0 0 1-.656-.754S66.928 73.1 63.46 62.7s-1.64-24.3-1.64-24.3z" data-name="Path 2551" transform="translate(-58.566 -33.117)"/>
        <path id="Path_2552" fill="#ffba00" d="M75.705 101.909a.784.784 0 0 0 .791.845h15.675a.784.784 0 0 0 .791-.845s-.7-10.5 1.559-16.84c2.951-8.287 2.362-19.1 2.362-19.1a.908.908 0 0 0-.893-.846H76.922c-.336 4.052-1.072 11.146.915 16.721C78.873 84.75 79 88 79.17 90.991h-.812a46.976 46.976 0 0 0-2.135-9.152c-1.986-5.574-2.039-12.669-1.862-16.721h-1.348a.939.939 0 0 0-.917.844s-.9 10.819 2.052 19.106c2.258 6.344 1.557 16.841 1.557 16.841z" data-name="Path 2552" transform="translate(-67.466 -54.371)"/>
    </g>
</svg>
