<svg xmlns="http://www.w3.org/2000/svg" id="coffee-cup" width="38.199" height="36.137" viewBox="0 0 38.199 36.137">
    <defs>
        <style>
            .cls-1{fill:none}
        </style>
    </defs>
    <path id="Path_2495" d="M80.6 102.6H58.973a1.132 1.132 0 0 0-1.142 1.142v28.748a1.106 1.106 0 0 0 .2.638 1.123 1.123 0 0 0 .84.5 102.5 102.5 0 0 0 10.579.638c4.5 0 9.034-.4 11.352-.638a1.363 1.363 0 0 0 .974-.537 1.006 1.006 0 0 0 .2-.6v-28.749A1.354 1.354 0 0 0 80.6 102.6z" class="cls-1" data-name="Path 2495" transform="translate(-55.581 -100.35)"/>
    <path id="Path_2496" d="M138.851 124.695c-.94-.067-2.082 1.175-2.62 1.982v11.385a1.927 1.927 0 0 0 .168 1.041c.47 0 1.948-.84 3.661-2.586.067-.067.134-.168.2-.235a9.016 9.016 0 0 0 .638-9.437c-.67-1.345-1.376-2.117-2.047-2.15z" class="cls-1" data-name="Path 2496" transform="translate(-107.65 -115.022)"/>
    <path id="Path_2497" d="M89.317 111.416c-.3-8.463-4.971-10.478-8.833-10.68h-.168a1.026 1.026 0 0 1-.638-.269v-1.175a3.465 3.465 0 0 0-3.56-3.392H54.523a3.383 3.383 0 0 0-3.392 3.392v28.749a3.247 3.247 0 0 0 .571 1.847 3.383 3.383 0 0 0 2.452 1.511 106.642 106.642 0 0 0 10.814.638c4.6 0 9.2-.4 11.553-.638a3.607 3.607 0 0 0 2.586-1.478 3.216 3.216 0 0 0 .6-1.881v-2.049a6.125 6.125 0 0 0 1.814-2.082c1.851-.671 8.132-3.526 7.796-12.493zm-11.855-4.2v20.789a1.083 1.083 0 0 1-.2.6 1.3 1.3 0 0 1-.974.537c-2.317.235-6.851.638-11.352.638a103.809 103.809 0 0 1-10.579-.638 1.231 1.231 0 0 1-.84-.5 1.106 1.106 0 0 1-.2-.638V99.292a1.132 1.132 0 0 1 1.142-1.142h21.625a1.241 1.241 0 0 1 1.31 1.142v7.926zm6.28 9.941a1.461 1.461 0 0 1-.2.235c-1.746 1.746-3.224 2.586-3.661 2.586a2.549 2.549 0 0 1-.168-1.041v-11.383c.537-.806 1.679-2.049 2.62-1.981.672.034 1.377.806 2.049 2.149a9.016 9.016 0 0 1-.64 9.437z" data-name="Path 2497" transform="translate(-51.131 -95.9)"/>
</svg>
